<?xml version="1.0" standalone="no"?><!DOCTYPE svg PUBLIC "-//W3C//DTD SVG 1.1//EN" "http://www.w3.org/Graphics/SVG/1.1/DTD/svg11.dtd"><svg t="1639832390786" class="icon" viewBox="0 0 1024 1024" version="1.1" xmlns="http://www.w3.org/2000/svg" p-id="1740" xmlns:xlink="http://www.w3.org/1999/xlink" width="200" height="200"><defs><style type="text/css"></style></defs><path d="M331.553889 964.708918a17.434036 17.434036 0 0 1-6.681767 14.438761 27.725493 27.725493 0 0 1-17.818046 5.299332 55.60459 55.60459 0 0 1-20.42931-2.918473v-5.068927a51.918098 51.918098 0 0 0 20.045301 3.302483 22.502963 22.502963 0 0 0 14.208355-4.070502 12.979524 12.979524 0 0 0 5.222531-10.752269 12.441911 12.441911 0 0 0-1.766445-6.83537 15.897997 15.897997 0 0 0-5.683342-4.915323 70.120153 70.120153 0 0 0-11.520288-4.838521 39.399385 39.399385 0 0 1-15.360384-8.294608 17.741244 17.741244 0 0 1 2.150454-25.191029 25.344634 25.344634 0 0 1 16.435611-5.145729 48.154804 48.154804 0 0 1 19.277282 3.916898l-1.843246 4.377709a45.005925 45.005925 0 0 0-17.280432-3.763294 20.275707 20.275707 0 0 0-12.825921 3.763294 12.211505 12.211505 0 0 0-4.761719 10.137854 11.750694 11.750694 0 0 0 6.297758 11.289882 65.58884 65.58884 0 0 0 11.443486 4.915323 61.979149 61.979149 0 0 1 12.82592 5.683342 18.202055 18.202055 0 0 1 6.220956 6.297757 17.050026 17.050026 0 0 1 1.843246 8.37141zM383.395185 983.525388v-35.098477a17.126828 17.126828 0 0 0-3.456087-11.904298 13.824346 13.824346 0 0 0-10.675466-3.686492 18.432461 18.432461 0 0 0-14.208356 4.915323 23.040576 23.040576 0 0 0-4.531313 15.897997v29.875947H345.60864v-53.761344h4.147304l0.921623 7.680192a21.19733 21.19733 0 0 1 19.046876-8.448211q18.432461 0 18.432461 19.738093v35.405685zM450.520063 956.337508a30.720768 30.720768 0 0 1-6.451361 20.659717 22.195755 22.195755 0 0 1-17.741244 7.680192 23.040576 23.040576 0 0 1-12.518713-3.456086 21.965349 21.965349 0 0 1-8.294607-9.830646 35.943299 35.943299 0 0 1-2.841671-14.822771 30.720768 30.720768 0 0 1 6.451361-20.659716 22.118953 22.118953 0 0 1 17.58764-7.680192 21.734943 21.734943 0 0 1 17.510838 7.680192 30.720768 30.720768 0 0 1 6.297757 20.42931z m-42.701868 0a27.571889 27.571889 0 0 0 4.915323 17.357234 18.509263 18.509263 0 0 0 27.725493 0 27.495087 27.495087 0 0 0 4.915323-17.357234 27.111078 27.111078 0 0 0-4.915323-17.357233 16.81962 16.81962 0 0 0-13.901147-6.144154 16.589215 16.589215 0 0 0-13.824346 6.144154 27.418285 27.418285 0 0 0-4.915323 17.357233zM508.735918 983.525388l-11.827495-36.173704q-1.152029-3.686492-2.918473-10.829071a18.202055 18.202055 0 0 0-1.305633 3.686492l-2.227256 7.219381-12.057901 36.096902h-4.915323l-15.360384-53.761344h5.299333l8.678617 31.335183q2.995275 11.673892 3.993699 17.126829c2.227256-7.680192 3.686492-12.902723 4.608116-15.360384L491.532288 929.303233h4.454512l10.905872 33.024825q3.60969 11.673892 4.37771 15.360384c0.537613-2.150454 1.920048-7.680192 4.300907-17.280432l8.294608-30.720768h4.992124l-14.669166 53.761344zM559.271582 933.680942h-12.749119v49.844446h-4.915323v-49.844446h-10.061051v-2.918473l10.061051-1.843246v-4.147304a23.578189 23.578189 0 0 1 3.686492-14.592365 14.361959 14.361959 0 0 1 11.9811-4.684917 30.720768 30.720768 0 0 1 8.985825 1.305633l-1.152029 4.300908a26.266257 26.266257 0 0 0-7.680192-1.228831 9.369834 9.369834 0 0 0-8.217806 3.379284 19.58449 19.58449 0 0 0-2.380859 11.059477v4.992125h12.749118z m15.360384 49.844446h-4.915323V906.262657h4.915323zM625.628441 983.525388l-1.228831-8.525013h-0.38401a25.805445 25.805445 0 0 1-8.371409 7.680192 22.426161 22.426161 0 0 1-10.214655 2.150454 17.58764 17.58764 0 0 1-12.365109-4.070502 14.592365 14.592365 0 0 1-4.454512-11.289882 13.901148 13.901148 0 0 1 6.604965-12.288307A35.789695 35.789695 0 0 1 614.41536 952.343809h10.291458v-3.609691a18.355659 18.355659 0 0 0-3.148879-11.673891 12.134703 12.134703 0 0 0-10.137853-3.916898 33.792845 33.792845 0 0 0-15.360385 4.147303l-1.843246-4.300907a41.165829 41.165829 0 0 1 17.58764-4.147304 17.58764 17.58764 0 0 1 13.286732 4.608115 20.352509 20.352509 0 0 1 4.37771 14.438761v35.943299z m-19.891698-3.456086a17.20363 17.20363 0 0 0 18.662867-18.739669v-5.299332l-9.446636 0.384009A35.636091 35.636091 0 0 0 599.054976 960.024001a10.214655 10.214655 0 0 0-4.838521 9.369834 10.061052 10.061052 0 0 0 3.148879 7.680192 12.595515 12.595515 0 0 0 8.371409 2.918473zM651.58749 960.024001l27.648691-30.720768h5.99055l-21.274132 23.040576 23.040576 30.720768h-5.913748L660.496512 956.183905l-8.83222 7.680192v19.277282h-4.915323V906.262657h4.915323v38.40096s-0.307208 15.360384-0.076802 15.360384zM717.944349 984.447011a23.578189 23.578189 0 0 1-18.355659-7.296182 29.261532 29.261532 0 0 1-6.604965-20.352509 31.719193 31.719193 0 0 1 6.374559-20.736518 21.043726 21.043726 0 0 1 17.20363-7.680192 18.509263 18.509263 0 0 1 15.360384 6.681767 27.571889 27.571889 0 0 1 5.376134 18.048451v3.9937h-39.168979a25.575039 25.575039 0 0 0 5.222531 17.050026 18.278857 18.278857 0 0 0 14.592365 5.836946 45.620341 45.620341 0 0 0 8.141003-0.614416 49.230031 49.230031 0 0 0 8.909023-2.764869v4.454512a40.244206 40.244206 0 0 1-8.448211 2.688067 47.386785 47.386785 0 0 1-8.601815 0.691217z m-1.459237-51.764494a16.205205 16.205205 0 0 0-12.518713 5.145729 24.269407 24.269407 0 0 0-5.529738 14.82277h33.408835a23.578189 23.578189 0 0 0-4.070502-14.669166 13.440336 13.440336 0 0 0-11.289882-5.222531zM509.273532 184.324608L399.369984 138.857871a7.142579 7.142579 0 1 1 5.452937-13.20993l107.522688 44.468312 107.522688-44.468312a7.142579 7.142579 0 1 1 5.452936 13.20993L514.572864 184.324608a7.21938 7.21938 0 0 1-5.452936 0zM509.273532 284.167104l-13.670742-5.683342-22.042151-9.139428a7.142579 7.142579 0 0 1 5.452936-13.209931l22.042151 9.139429 10.905873 4.531313 10.905873-4.531313 22.42616-9.216231a7.142579 7.142579 0 0 1 5.452937 13.209931l-22.349359 9.139428L514.572864 284.167104a7.21938 7.21938 0 0 1-5.452936 0zM310.126153 504.127803a7.142579 7.142579 0 0 1-3.840096-9.369834l9.139429-22.042151 4.531313-10.905873-4.531313-10.982674-9.139429-22.042151a7.142579 7.142579 0 1 1 13.20993-5.452937L328.635416 445.451136l5.683342 13.670742a7.21938 7.21938 0 0 1 0 5.452936l-5.683342 13.670742-9.139429 22.042151a7.142579 7.142579 0 0 1-9.293032 3.840096zM545.293632 667.562289l-22.042151-9.139428-10.905872-4.531314-10.905873 4.531314-22.042151 9.139428a7.142579 7.142579 0 1 1-5.452936-13.20993l21.658141-9.216231 13.670742-5.683342a7.142579 7.142579 0 0 1 5.452936 0l13.670742 5.683342 22.042151 9.139429a7.142579 7.142579 0 1 1-5.145729 13.286732zM704.504013 500.210905l-9.139429-22.042151-5.60654-13.59394a7.21938 7.21938 0 0 1 0-5.452936l5.60654-13.670742 9.139429-22.118953a7.142579 7.142579 0 0 1 13.20993 5.452937l-9.139429 22.118953-4.531313 10.905872 4.454511 10.905873 9.139429 22.042151a7.142579 7.142579 0 1 1-13.20993 5.452936zM509.273532 625.321233l-22.042151-9.139428-66.817671-27.725494-22.042151-9.139428a7.142579 7.142579 0 0 1-3.840096-3.840096l-9.139428-22.042151-27.648691-66.817671-9.139429-22.042151a7.065777 7.065777 0 0 1 0-5.452936l9.139429-22.042151 27.648691-66.894472 9.139428-22.042151a7.065777 7.065777 0 0 1 3.840096-3.840096l22.042151-9.139429 66.817671-27.648691 22.042151-9.139429a7.21938 7.21938 0 0 1 5.452936 0L536.768619 307.20768l66.817671 27.648691 22.042151 9.139429a7.21938 7.21938 0 0 1 3.840096 3.840096l9.139428 22.042151 27.725493 66.894472 9.523438 22.272557a7.21938 7.21938 0 0 1 0 5.452936l-9.139428 22.042152-27.725493 66.81767-9.216231 22.118953a7.21938 7.21938 0 0 1-3.840096 3.840096l-22.272556 9.139428-66.894473 27.725494L514.572864 625.321233a7.21938 7.21938 0 0 1-5.452936 0z m-16.589215-304.673217l-66.81767 27.648691-19.354084 7.680192-7.680192 19.354084-27.648691 66.894473-7.680192 19.277282 7.680192 19.354083 27.648691 66.817671 7.680192 19.354084 19.354084 7.680192 66.81767 27.725493 19.277282 7.680192 19.354084-7.680192 66.81767-27.725493 19.277282-7.680192 7.680192-19.354084 27.725493-66.817671 7.680192-19.354083-7.680192-19.354084-27.725493-66.817671-7.680192-19.354084-19.277282-7.680192-66.894472-27.648691-19.354084-7.680192z" fill="#262626" p-id="1741"></path><path d="M442.455861 535.232581a7.142579 7.142579 0 0 1-3.840096-3.840096l-27.725493-66.894473a7.21938 7.21938 0 0 1 0-5.452936l27.725493-66.81767a7.680192 7.680192 0 0 1 3.840096-3.840096l66.817671-27.418286a7.142579 7.142579 0 0 1 5.299332 0l66.817671 27.725493a7.065777 7.065777 0 0 1 3.840096 3.840096l27.725493 66.817671a7.142579 7.142579 0 0 1 0 5.452936l-27.725493 66.894472a7.142579 7.142579 0 0 1-3.840096 3.840096L514.572864 562.958074a7.142579 7.142579 0 0 1-5.452936 0z m69.58254 13.363534l61.441536-25.421436 25.421436-61.441536-25.421436-61.441536-61.441536-25.421435-61.441536 25.421435-25.421436 61.441536 25.421436 61.441536z" fill="#262626" p-id="1742"></path><path d="M504.895822 367.266782V101.071327a7.142579 7.142579 0 1 1 14.285158 0v266.195455a7.142579 7.142579 0 1 1-14.285158 0zM395.145879 794.055051a7.142579 7.142579 0 0 1 3.840096-9.293032l110.210755-45.62034a7.21938 7.21938 0 0 1 5.452936 0l110.210756 45.62034a7.142579 7.142579 0 1 1-5.452937 13.20993l-107.522688-44.468311-107.522688 44.468311a6.988975 6.988975 0 0 1-2.764869 0.537614 7.142579 7.142579 0 0 1-6.451361-4.454512z" fill="#262626" p-id="1743"></path><path d="M504.895822 822.548564V556.353109a7.142579 7.142579 0 1 1 14.285158 0v266.195455a7.142579 7.142579 0 1 1-14.285158 0zM834.990475 574.78557l-45.620341-110.210756a7.21938 7.21938 0 0 1 0-5.452936l45.620341-110.210755a7.142579 7.142579 0 0 1 13.20993 5.452936l-44.545114 107.522688 44.545114 107.522688a7.142579 7.142579 0 1 1-13.20993 5.452937z" fill="#262626" p-id="1744"></path><path d="M599.054976 461.809945a7.142579 7.142579 0 0 1 7.680192-7.142578h266.195455a7.142579 7.142579 0 0 1 0 14.285157H606.735168a7.142579 7.142579 0 0 1-7.680192-7.142579zM179.716493 578.625666a7.142579 7.142579 0 0 1-3.840096-9.369835l44.468312-107.522688-44.468312-107.522688a7.142579 7.142579 0 0 1 13.20993-5.452936l45.620341 110.210755a7.21938 7.21938 0 0 1 0 5.452937l-45.620341 110.364359a7.142579 7.142579 0 0 1-9.293032 3.840096z" fill="#262626" p-id="1745"></path><path d="M151.299782 468.952524a7.142579 7.142579 0 0 1 0-14.285157h266.195455a7.142579 7.142579 0 1 1 0 14.285157zM675.319283 352.828021l-22.042151-9.139429-13.670742-5.760144a7.21938 7.21938 0 0 1-3.840096-3.840096L629.775744 320.494412l-9.139428-22.042151a7.142579 7.142579 0 0 1 13.20993-5.452936L643.292882 314.887872l4.531314 10.982675 10.905872 4.531313 22.042151 9.139429a7.142579 7.142579 0 0 1-5.452936 13.20993zM339.387685 348.987925a7.142579 7.142579 0 0 1 3.840096-9.369835L365.269932 330.248256l11.059476-4.224105 4.37771-11.136279 9.139428-22.042151a7.142579 7.142579 0 0 1 13.20993 5.452936l-9.139428 22.042152-5.683342 13.670741a7.142579 7.142579 0 0 1-3.840096 3.840096l-13.670742 5.683342-22.042151 9.293033a7.142579 7.142579 0 0 1-9.369834-3.840096zM389.846546 630.620566l-9.139428-22.042152-4.37771-10.982674-10.905872-4.531313L343.227781 583.694592a7.142579 7.142579 0 1 1 5.452936-13.20993l22.042151 9.139429 13.670742 5.683342a7.142579 7.142579 0 0 1 3.840096 3.840096l5.683342 13.670741 9.139428 22.042152a7.142579 7.142579 0 1 1-13.20993 5.452936zM624.860422 634.38386a7.142579 7.142579 0 0 1-3.840096-9.369835L629.775744 603.048676l5.683342-13.59394a7.142579 7.142579 0 0 1 3.840096-3.840096l13.59394-5.683342 22.042151-9.139428a7.142579 7.142579 0 0 1 5.836946 12.902722l-22.118953 9.139429-10.905872 4.531313-4.531314 10.905873-9.062626 22.272557a7.142579 7.142579 0 0 1-9.293032 3.840096z" fill="#262626" p-id="1746"></path><path d="M573.787145 399.9844a7.142579 7.142579 0 0 1 0-10.137854l188.164704-188.241506a7.142579 7.142579 0 0 1 10.137853 10.137854L583.694592 399.9844a7.142579 7.142579 0 0 1-10.137853 0zM251.910298 721.938048a7.142579 7.142579 0 0 1 0-10.061051l188.164704-188.241506a7.142579 7.142579 0 0 1 10.061051 10.137853L261.971349 721.938048a7.142579 7.142579 0 0 1-10.137853 0zM762.028651 721.938048L573.787145 533.696542A7.142579 7.142579 0 0 1 583.694592 523.635491l188.241506 188.241506A7.142579 7.142579 0 1 1 762.028651 721.938048zM440.075002 399.9844l-188.164704-188.164705a7.142579 7.142579 0 0 1 10.137853-10.137853l188.164704 188.241506a7.142579 7.142579 0 0 1-10.061051 10.137854z" fill="#262626" p-id="1747"></path><path d="M820.244506 313.351834l-110.210755-45.697143a7.142579 7.142579 0 0 1-3.840096-3.840096L660.496512 153.60384a7.142579 7.142579 0 1 1 13.209931-5.452936l44.545113 107.522688 107.522688 44.545113a7.142579 7.142579 0 1 1-5.452936 13.209931zM350.370359 775.699392l-44.545113-107.522688-107.522688-44.545113a7.142579 7.142579 0 0 1 5.452936-13.20993l110.210755 45.697142a7.21938 7.21938 0 0 1 3.840096 3.840096l46.081152 110.210755a7.142579 7.142579 0 0 1-13.20993 5.452937zM664.336608 779.385885a7.142579 7.142579 0 0 1-3.840096-9.369835l45.697143-110.210755a7.142579 7.142579 0 0 1 3.840096-3.840096l110.210755-45.697142a7.142579 7.142579 0 0 1 5.452936 13.20993l-107.522688 44.545114-44.545113 107.522688a7.142579 7.142579 0 0 1-9.369835 3.840096zM776.774619 535.078977a7.065777 7.065777 0 0 1 0 5.452936l-21.811745 52.839721a7.142579 7.142579 0 0 1-3.840096 3.840096l-73.269032 30.336759-30.41356 73.269031a7.065777 7.065777 0 0 1-3.840096 3.840096l-52.916523 21.888548a7.065777 7.065777 0 0 1-2.764869 0.537613 7.142579 7.142579 0 0 1-2.764869-0.537613l-73.269032-30.720768-73.269032 30.720768a7.065777 7.065777 0 0 1-5.452936 0l-52.839721-21.888548a7.065777 7.065777 0 0 1-3.840096-3.840096l-30.336758-73.269031-73.269032-30.336759a7.065777 7.065777 0 0 1-3.840096-3.840096l-21.888547-52.839721a7.142579 7.142579 0 0 1 0-5.452936l30.720768-73.269032-30.720768-73.269031a6.988975 6.988975 0 0 1 0-5.452937L268.80672 330.248256a7.21938 7.21938 0 0 1 3.840096-3.840096l73.269032-30.336758L376.329408 222.725568a7.21938 7.21938 0 0 1 3.840096-3.840096l52.839721-21.888547a7.142579 7.142579 0 0 1 5.452937 0l73.269031 30.720768 73.269032-30.720768a7.21938 7.21938 0 0 1 5.452936 0l53.146929 21.888547a7.065777 7.065777 0 0 1 3.840096 3.840096l30.336758 73.269032 73.269032 30.336758a7.142579 7.142579 0 0 1 3.840096 3.840096l21.888547 52.839721a7.142579 7.142579 0 0 1 0 5.452937l-30.720768 73.269031zM514.572864 681.847446l73.269032 30.720768 47.386785-19.661291 30.336758-73.269032a7.142579 7.142579 0 0 1 3.840096-3.840096l73.269032-30.336758L762.489462 537.61344l-30.720768-73.269031a6.988975 6.988975 0 0 1 0-5.452937l30.720768-73.269031-19.661291-47.386785-73.269032-30.336759a7.065777 7.065777 0 0 1-3.840096-3.840096l-30.336758-73.269031-47.386785-19.661292-73.269032 30.720768a7.142579 7.142579 0 0 1-5.452936 0l-73.269032-30.720768-47.386785 19.661292-30.720768 73.269031a7.065777 7.065777 0 0 1-3.840096 3.840096l-73.269031 30.336759L261.126528 385.622441l30.720768 73.269031a7.21938 7.21938 0 0 1 0 5.452937L261.126528 537.61344l19.58449 47.386785 73.269032 30.336758a7.065777 7.065777 0 0 1 3.840096 3.840096l30.336758 73.269032 47.386785 19.661292 73.269031-30.720768a7.142579 7.142579 0 0 1 5.452937 0zM194.462462 309.511738a7.142579 7.142579 0 0 1 3.840096-9.369834l107.522688-44.545114 44.545113-107.522688a7.142579 7.142579 0 0 1 13.209931 5.452936l-45.697143 110.287557a7.142579 7.142579 0 0 1-3.840096 3.840096L203.755494 313.351834a7.142579 7.142579 0 0 1-9.293032-3.840096z" fill="#262626" p-id="1748"></path></svg>